<mxfile host="65bd71144e">
    <diagram id="1Q8gdFwnxWPKVcjra4Vg" name="Página-1">
        <mxGraphModel dx="3467" dy="569" grid="1" gridSize="10" guides="1" tooltips="1" connect="1" arrows="1" fold="1" page="1" pageScale="1" pageWidth="827" pageHeight="1169" math="0" shadow="0">
            <root>
                <mxCell id="0"/>
                <mxCell id="1" parent="0"/>
                <mxCell id="2" value="Cuidad" style="swimlane;whiteSpace=wrap;html=1;" vertex="1" parent="1">
                    <mxGeometry x="-1650" y="30" width="200" height="150" as="geometry"/>
                </mxCell>
                <mxCell id="3" value="Nombre: 1 Texto&lt;br/&gt;Provincia: 1 Texto&lt;br/&gt;País: 1 Texto&lt;br/&gt;" style="text;html=1;align=center;verticalAlign=middle;resizable=0;points=[];autosize=1;strokeColor=none;fillColor=none;" vertex="1" parent="2">
                    <mxGeometry x="50" y="70" width="120" height="60" as="geometry"/>
                </mxCell>
                <mxCell id="4" value="Espacio Abierto (A)" style="swimlane;whiteSpace=wrap;html=1;" vertex="1" parent="1">
                    <mxGeometry x="-1280" y="60" width="200" height="90" as="geometry"/>
                </mxCell>
                <mxCell id="6" value="Nombre: 1..* Texto" style="text;html=1;align=center;verticalAlign=middle;resizable=0;points=[];autosize=1;strokeColor=none;fillColor=none;" vertex="1" parent="4">
                    <mxGeometry x="40" y="45" width="120" height="30" as="geometry"/>
                </mxCell>
                <mxCell id="8" value="Edificio" style="swimlane;whiteSpace=wrap;html=1;" vertex="1" parent="1">
                    <mxGeometry x="-870" y="50" width="200" height="110" as="geometry"/>
                </mxCell>
                <mxCell id="11" value="Número: 1 Texto" style="text;html=1;align=center;verticalAlign=middle;resizable=0;points=[];autosize=1;strokeColor=none;fillColor=none;" vertex="1" parent="8">
                    <mxGeometry x="45" y="55" width="110" height="30" as="geometry"/>
                </mxCell>
                <mxCell id="13" value="Elemento estructural" style="swimlane;whiteSpace=wrap;html=1;" vertex="1" parent="1">
                    <mxGeometry x="-430" y="40" width="200" height="110" as="geometry"/>
                </mxCell>
                <mxCell id="14" value="Tipo: 1 enum TipoElemento" style="text;html=1;align=center;verticalAlign=middle;resizable=0;points=[];autosize=1;strokeColor=none;fillColor=none;" vertex="1" parent="13">
                    <mxGeometry x="15" y="55" width="170" height="30" as="geometry"/>
                </mxCell>
                <mxCell id="17" value="Calle" style="swimlane;whiteSpace=wrap;html=1;" vertex="1" parent="1">
                    <mxGeometry x="-1470" y="350" width="200" height="110" as="geometry"/>
                </mxCell>
                <mxCell id="23" value="Longitud: 1 Número" style="text;html=1;align=center;verticalAlign=middle;resizable=0;points=[];autosize=1;strokeColor=none;fillColor=none;" vertex="1" parent="17">
                    <mxGeometry x="30" y="50" width="130" height="30" as="geometry"/>
                </mxCell>
                <mxCell id="19" value="Plaza" style="swimlane;whiteSpace=wrap;html=1;" vertex="1" parent="1">
                    <mxGeometry x="-1110" y="350" width="200" height="110" as="geometry"/>
                </mxCell>
                <mxCell id="20" value="Superficie: 1 Número" style="text;html=1;align=center;verticalAlign=middle;resizable=0;points=[];autosize=1;strokeColor=none;fillColor=none;" vertex="1" parent="19">
                    <mxGeometry x="30" y="55" width="140" height="30" as="geometry"/>
                </mxCell>
                <mxCell id="22" value="TipoElemento&lt;br/&gt;Portada&lt;br/&gt;Puerta&lt;br/&gt;Ventana&lt;br/&gt;Balcón" style="text;html=1;align=center;verticalAlign=middle;resizable=0;points=[];autosize=1;strokeColor=none;fillColor=none;" vertex="1" parent="1">
                    <mxGeometry x="-710" y="350" width="100" height="90" as="geometry"/>
                </mxCell>
                <mxCell id="25" value="" style="endArrow=none;html=1;" edge="1" parent="1">
                    <mxGeometry width="50" height="50" relative="1" as="geometry">
                        <mxPoint x="-1000" y="370" as="sourcePoint"/>
                        <mxPoint x="-1000" y="270" as="targetPoint"/>
                    </mxGeometry>
                </mxCell>
                <mxCell id="26" value="" style="endArrow=none;html=1;" edge="1" parent="1">
                    <mxGeometry width="50" height="50" relative="1" as="geometry">
                        <mxPoint x="-1360" y="370" as="sourcePoint"/>
                        <mxPoint x="-1360" y="270" as="targetPoint"/>
                    </mxGeometry>
                </mxCell>
                <mxCell id="29" value="" style="endArrow=none;html=1;" edge="1" parent="1">
                    <mxGeometry width="50" height="50" relative="1" as="geometry">
                        <mxPoint x="-1360" y="270" as="sourcePoint"/>
                        <mxPoint x="-1000" y="270" as="targetPoint"/>
                    </mxGeometry>
                </mxCell>
                <mxCell id="30" value="" style="shape=singleArrow;direction=north;whiteSpace=wrap;html=1;fillColor=#FFFFFF;" vertex="1" parent="1">
                    <mxGeometry x="-1220" y="170" width="60" height="100" as="geometry"/>
                </mxCell>
                <mxCell id="31" value="" style="endArrow=none;html=1;" edge="1" parent="1">
                    <mxGeometry width="50" height="50" relative="1" as="geometry">
                        <mxPoint x="-1400" y="110" as="sourcePoint"/>
                        <mxPoint x="-1280" y="110" as="targetPoint"/>
                    </mxGeometry>
                </mxCell>
                <mxCell id="32" value="" style="endArrow=none;html=1;" edge="1" parent="1">
                    <mxGeometry width="50" height="50" relative="1" as="geometry">
                        <mxPoint x="-1030" y="104" as="sourcePoint"/>
                        <mxPoint x="-870" y="103.89" as="targetPoint"/>
                    </mxGeometry>
                </mxCell>
                <mxCell id="33" value="" style="endArrow=none;html=1;" edge="1" parent="1">
                    <mxGeometry width="50" height="50" relative="1" as="geometry">
                        <mxPoint x="-620" y="94" as="sourcePoint"/>
                        <mxPoint x="-430" y="93.88999999999999" as="targetPoint"/>
                    </mxGeometry>
                </mxCell>
                <mxCell id="34" value="" style="rhombus;whiteSpace=wrap;html=1;fillColor=#FFFFFF;" vertex="1" parent="1">
                    <mxGeometry x="-1450" y="90" width="50" height="50" as="geometry"/>
                </mxCell>
                <mxCell id="35" value="" style="rhombus;whiteSpace=wrap;html=1;fillColor=#FFFFFF;" vertex="1" parent="1">
                    <mxGeometry x="-1080" y="80" width="50" height="50" as="geometry"/>
                </mxCell>
                <mxCell id="36" value="" style="rhombus;whiteSpace=wrap;html=1;fillColor=#FFFFFF;" vertex="1" parent="1">
                    <mxGeometry x="-670" y="70" width="50" height="50" as="geometry"/>
                </mxCell>
                <mxCell id="41" value="1" style="text;html=1;align=center;verticalAlign=middle;resizable=0;points=[];autosize=1;strokeColor=none;fillColor=#1E1924;" vertex="1" parent="1">
                    <mxGeometry x="-1420" y="60" width="30" height="30" as="geometry"/>
                </mxCell>
                <mxCell id="42" value="&amp;nbsp;0..*&amp;nbsp;" style="text;html=1;align=center;verticalAlign=middle;resizable=0;points=[];autosize=1;strokeColor=none;fillColor=none;" vertex="1" parent="1">
                    <mxGeometry x="-1330" y="60" width="50" height="30" as="geometry"/>
                </mxCell>
                <mxCell id="43" value="&amp;nbsp;0..*&amp;nbsp;" style="text;html=1;align=center;verticalAlign=middle;resizable=0;points=[];autosize=1;strokeColor=none;fillColor=none;" vertex="1" parent="1">
                    <mxGeometry x="-920" y="70" width="50" height="30" as="geometry"/>
                </mxCell>
                <mxCell id="45" value="&amp;nbsp;0..*&amp;nbsp;" style="text;html=1;align=center;verticalAlign=middle;resizable=0;points=[];autosize=1;strokeColor=none;fillColor=none;" vertex="1" parent="1">
                    <mxGeometry x="-470" y="60" width="50" height="30" as="geometry"/>
                </mxCell>
                <mxCell id="46" value="1" style="text;html=1;align=center;verticalAlign=middle;resizable=0;points=[];autosize=1;strokeColor=none;fillColor=#1E1924;" vertex="1" parent="1">
                    <mxGeometry x="-1030" y="70" width="30" height="30" as="geometry"/>
                </mxCell>
                <mxCell id="47" value="1" style="text;html=1;align=center;verticalAlign=middle;resizable=0;points=[];autosize=1;strokeColor=none;fillColor=#1E1924;" vertex="1" parent="1">
                    <mxGeometry x="-620" y="60" width="30" height="30" as="geometry"/>
                </mxCell>
            </root>
        </mxGraphModel>
    </diagram>
</mxfile>